<?xml version="1.0" encoding="UTF-8"?>
<svg xmlns="http://www.w3.org/2000/svg" xmlns:xlink="http://www.w3.org/1999/xlink" width="484px" height="600px" viewBox="0 0 484 600" version="1.1">
<g id="surface1">
<path style="fill-rule:evenodd;fill:rgb(75.294118%,75.294118%,75.294118%);fill-opacity:1;stroke-width:1.2665;stroke-linecap:round;stroke-linejoin:round;stroke:rgb(0%,0%,0%);stroke-opacity:1;stroke-miterlimit:4;" d="M 62.482625 168.980585 L 60.583346 168.560544 L 59.654193 167.930483 L 59.146835 166.449477 L 58.935938 165.00951 L 59.021502 163.830257 L 59.86509 161.20983 L 59.654193 159.230328 L 58.76722 156.18986 L 57.670555 153.909811 L 56.783582 151.879614 L 56.234044 149.559734 L 56.191864 147.659894 L 56.783582 145.379845 L 57.839272 143.389479 L 58.935938 141.790186 L 59.86509 139.5898 L 60.286884 137.780486 L 60.244705 135.629588 L 59.738552 133.220388 L 58.893758 131.949403 L 57.035453 129.710392 L 56.86794 128.949973 L 56.952299 127.559493 L 57.205376 126.55043 L 58.218887 124.900442 L 100.350112 124.900442 L 100.389881 126.079695 L 101.369649 127.939703 L 102.079468 130.520298 L 102.130083 132.369443 L 101.52993 135.710457 L 99.423369 141.580165 L 98.959395 143.769688 L 98.959395 145.039467 L 100.010266 149.389545 L 100.480265 151.039532 L 101.580546 153.150599 L 102.130083 155.47048 L 102.079468 157.160299 L 101.409418 159.98954 L 99.845163 164.080109 L 99.042549 168.430187 L 98.452037 168.859884 L 97.397551 168.939547 Z M 62.482625 168.980585 " transform="matrix(3.241361,0,0,3.236293,-13.618578,-13.409716)"/>
<path style="fill-rule:evenodd;fill:rgb(0%,0%,0%);fill-opacity:1;stroke-width:1.2665;stroke-linecap:round;stroke-linejoin:round;stroke:rgb(0%,0%,0%);stroke-opacity:1;stroke-miterlimit:4;" d="M 63.580495 168.980585 L 70.883562 176.330092 L 88.192795 176.330092 L 95.497067 168.980585 Z M 63.580495 168.980585 " transform="matrix(3.241361,0,0,3.236293,-13.618578,-13.409716)"/>
<path style="fill-rule:evenodd;fill:rgb(100%,100%,0%);fill-opacity:1;stroke-width:1.2665;stroke-linecap:round;stroke-linejoin:round;stroke:rgb(0%,0%,0%);stroke-opacity:1;stroke-miterlimit:4;" d="M 100.180189 124.900442 L 58.218887 124.900442 L 57.839272 121.899806 L 57.121017 118.520167 L 55.43143 113.750049 L 53.068176 109.189951 L 48.634516 101.590592 L 43.230728 91.246484 L 41.795423 87.700278 L 40.783116 83.520389 L 40.360117 80.184203 L 40.275758 76.342278 L 40.697552 72.287919 L 41.373628 68.699467 L 42.555858 64.771844 L 44.498522 60.422973 L 46.946134 56.28533 L 49.648027 52.612387 L 52.982612 48.938237 L 56.107506 46.36247 L 59.485475 44.209157 L 64.213187 41.971354 L 68.731206 40.367233 L 72.615329 39.437832 L 76.288555 39.015377 L 80.255831 39.015377 L 85.406542 39.522323 L 90.557253 40.536215 L 94.864375 42.013599 L 98.367678 43.828948 L 102.760365 46.869416 L 106.850564 50.415622 L 109.510278 53.287108 L 111.960301 56.496558 L 114.029503 60.042764 L 115.890218 64.180407 L 116.990499 67.516593 L 117.789498 71.275234 L 118.130549 74.990423 L 118.040164 79.254802 L 117.449652 83.730409 L 116.350577 88.33396 L 115.169553 92.006903 L 109.429535 101.469891 L 104.449952 110.37041 L 102.66998 114.429598 L 101.110546 119.500263 L 100.270573 124.060361 Z M 100.180189 124.900442 " transform="matrix(3.241361,0,0,3.236293,-13.618578,-13.409716)"/>
<path style="fill:none;stroke-width:1.2665;stroke-linecap:round;stroke-linejoin:round;stroke:rgb(0%,0%,0%);stroke-opacity:1;stroke-miterlimit:4;" d="M 58.218887 131.150359 L 100.389881 138.880076 " transform="matrix(3.241361,0,0,3.236293,-13.618578,-13.409716)"/>
<path style="fill:none;stroke-width:1.2665;stroke-linecap:round;stroke-linejoin:round;stroke:rgb(0%,0%,0%);stroke-opacity:1;stroke-miterlimit:4;" d="M 58.345426 142.969438 L 100.520034 150.700362 " transform="matrix(3.241361,0,0,3.236293,-13.618578,-13.409716)"/>
<path style="fill:none;stroke-width:1.2665;stroke-linecap:round;stroke-linejoin:round;stroke:rgb(0%,0%,0%);stroke-opacity:1;stroke-miterlimit:4;" d="M 58.345426 154.800587 L 100.520034 162.560479 " transform="matrix(3.241361,0,0,3.236293,-13.618578,-13.409716)"/>
<path style="fill:none;stroke-width:0.042218;stroke-linecap:round;stroke-linejoin:round;stroke:rgb(0%,0%,0%);stroke-opacity:1;stroke-miterlimit:4;" d="M 134.460013 189.420156 L 134.460013 189.210136 " transform="matrix(3.241361,0,0,3.236293,-13.618578,-13.409716)"/>
<path style="fill:none;stroke-width:1.2665;stroke-linecap:round;stroke-linejoin:round;stroke:rgb(0%,0%,0%);stroke-opacity:1;stroke-miterlimit:4;" d="M 68.351591 124.770085 L 62.059626 82.465459 L 62.14519 78.199872 L 62.524804 75.539614 L 63.199675 73.639774 L 63.96011 72.625883 L 65.015801 72.076691 L 65.564134 71.951162 L 67.041619 72.034446 L 68.392566 72.668128 L 69.237359 73.597529 L 69.913435 75.243896 L 70.672665 79.509482 L 71.011306 84.154071 L 70.925742 86.856575 L 70.419589 88.038242 L 69.660359 88.587433 L 69.279539 88.714169 L 68.392566 88.628471 L 67.505593 88.080487 L 66.872901 86.897614 L 66.029313 83.392446 L 65.690672 80.817885 L 65.732851 78.453345 L 66.282389 76.594544 L 67.505593 74.525722 L 69.95441 71.907709 L 71.812715 70.641552 L 72.910585 70.431532 L 74.177173 70.895025 L 75.442556 72.034446 L 76.793503 74.145513 L 77.639502 76.763526 L 78.440911 81.492606 L 78.567449 83.858353 L 78.314373 85.841476 L 77.850399 86.856575 L 76.921246 87.404559 L 75.696838 87.531296 L 74.641147 87.108841 L 74.04943 86.265138 L 73.585456 84.110619 L 72.910585 77.10149 L 73.037123 75.032668 L 73.585456 73.68202 L 74.725506 72.500353 L 76.836887 71.232989 L 79.62314 70.219097 L 80.424549 70.093568 L 81.775496 70.176852 L 82.915546 70.768288 L 84.308672 72.542599 L 85.701798 75.497368 L 86.335695 78.242118 L 86.462233 80.77564 L 86.124798 84.154071 L 85.576465 85.96942 L 85.069107 86.728632 L 84.055595 87.235577 L 83.168622 87.277823 L 82.409393 87.066595 L 81.734522 86.348422 L 81.142805 84.576526 L 80.76319 81.071358 L 80.76319 76.469015 L 81.058446 74.188966 L 81.692342 72.794865 L 82.789007 71.865464 L 84.394236 71.31748 L 85.659619 71.275234 L 87.010566 71.655444 L 88.192795 72.542599 L 89.079768 74.145513 L 89.460588 75.962069 L 89.501562 77.56619 L 84.730466 124.980105 " transform="matrix(3.241361,0,0,3.236293,-13.618578,-13.409716)"/>
<path style="fill-rule:evenodd;fill:rgb(100%,100%,0%);fill-opacity:1;stroke-width:0.042218;stroke-linecap:round;stroke-linejoin:round;stroke:rgb(0%,0%,0%);stroke-opacity:1;stroke-miterlimit:4;" d="M 4.264167 76.469015 L 27.019366 76.469015 L 27.019366 79.93073 L 4.264167 79.93073 Z M 4.264167 76.469015 " transform="matrix(3.241361,0,0,3.236293,-13.618578,-13.409716)"/>
<path style="fill-rule:evenodd;fill:rgb(100%,100%,0%);fill-opacity:1;stroke-width:0.042218;stroke-linecap:round;stroke-linejoin:round;stroke:rgb(0%,0%,0%);stroke-opacity:1;stroke-miterlimit:4;" d="M 130.660249 76.257787 L 153.460039 76.257787 L 153.460039 79.719503 L 130.660249 79.719503 Z M 130.660249 76.257787 " transform="matrix(3.241361,0,0,3.236293,-13.618578,-13.409716)"/>
<path style="fill-rule:evenodd;fill:rgb(100%,100%,0%);fill-opacity:1;stroke-width:0.042218;stroke-linecap:round;stroke-linejoin:round;stroke:rgb(0%,0%,0%);stroke-opacity:1;stroke-miterlimit:4;" d="M 80.424549 4.264244 L 76.963426 4.264244 L 76.963426 27.023695 L 80.424549 27.023695 Z M 80.424549 4.264244 " transform="matrix(3.241361,0,0,3.236293,-13.618578,-13.409716)"/>
<path style="fill-rule:evenodd;fill:rgb(100%,100%,0%);fill-opacity:1;stroke-width:0.042218;stroke-linecap:round;stroke-linejoin:round;stroke:rgb(0%,0%,0%);stroke-opacity:1;stroke-miterlimit:4;" d="M 26.302316 24.447928 L 23.811319 26.896959 L 39.938323 43.068529 L 42.38714 40.57846 Z M 26.302316 24.447928 " transform="matrix(3.241361,0,0,3.236293,-13.618578,-13.409716)"/>
<path style="fill-rule:evenodd;fill:rgb(100%,100%,0%);fill-opacity:1;stroke-width:0.042218;stroke-linecap:round;stroke-linejoin:round;stroke:rgb(0%,0%,0%);stroke-opacity:1;stroke-miterlimit:4;" d="M 131.170018 26.896959 L 128.719996 24.447928 L 112.600223 40.57846 L 115.039399 43.068529 Z M 131.170018 26.896959 " transform="matrix(3.241361,0,0,3.236293,-13.618578,-13.409716)"/>
<path style="fill-rule:evenodd;fill:rgb(100%,100%,0%);fill-opacity:1;stroke-width:0.042218;stroke-linecap:round;stroke-linejoin:round;stroke:rgb(0%,0%,0%);stroke-opacity:1;stroke-miterlimit:4;" d="M 124.590027 104.890568 L 122.140005 107.37943 L 138.220008 123.509962 L 140.7098 121.019893 Z M 124.590027 104.890568 " transform="matrix(3.241361,0,0,3.236293,-13.618578,-13.409716)"/>
<path style="fill-rule:evenodd;fill:rgb(100%,100%,0%);fill-opacity:1;stroke-width:0.042218;stroke-linecap:round;stroke-linejoin:round;stroke:rgb(0%,0%,0%);stroke-opacity:1;stroke-miterlimit:4;" d="M 37.405147 109.110288 L 34.95633 106.66005 L 18.829326 122.749544 L 21.320323 125.239613 Z M 37.405147 109.110288 " transform="matrix(3.241361,0,0,3.236293,-13.618578,-13.409716)"/>
</g>
</svg>
