<?xml version="1.0" encoding="UTF-8" standalone="no"?>
<!DOCTYPE svg PUBLIC "-//W3C//DTD SVG 1.1//EN" "http://www.w3.org/Graphics/SVG/1.1/DTD/svg11.dtd">
<svg width="100%" height="100%" viewBox="0 0 500 500" version="1.1" xmlns="http://www.w3.org/2000/svg" xmlns:xlink="http://www.w3.org/1999/xlink" xml:space="preserve" xmlns:serif="http://www.serif.com/" style="fill-rule:evenodd;clip-rule:evenodd;stroke-linejoin:round;">
    <g transform="matrix(1,0,0,1,-0.478195,0.478205)">
        <g id="Icon">
            <path id="rect4755" d="M480.105,25.392C480.105,22.358 477.642,19.895 474.608,19.895L26.348,19.895C23.314,19.895 20.851,22.358 20.851,25.392L20.851,473.652C20.851,476.686 23.314,479.149 26.348,479.149L474.608,479.149C477.642,479.149 480.105,476.686 480.105,473.652L480.105,25.392Z" style="fill:purple;stroke:black;stroke-width:40.75px;"/>
        </g>
    </g>
    <g id="Binary" transform="matrix(23.0641,0,0,23.0641,111.615,42.4288)">
        <g id="g8450">
            <path id="path7280" d="M10.5,0.688L9.781,1.063L3.781,4.063L3.656,4.125L3.594,4.219L1.594,7.219L1.5,7.344L1.5,17.312L2.219,16.938L10.219,12.938L10.5,12.812L10.5,12.5L10.5,1.5L10.5,0.688ZM9.5,2.313L9.5,12.188L2.5,15.688L2.5,7.625L4.344,4.875L9.5,2.313Z"/>
            <path id="path8411" d="M4.152,4.529L2.165,7.394L4.105,6.53L4.152,4.529Z" style="fill:purple;fill-rule:nonzero;"/>
            <path id="path7282" d="M3.75,4.5L3.75,6.344L1.875,7.281L2.125,7.719L4.125,6.719L4.25,6.656L4.25,6.5L4.25,4.5L3.75,4.5Z"/>
        </g>
        <g id="text3518" transform="matrix(1,-0.57735,0,1,0,0)">
            <path d="M3.472,10.972C3.37,10.972 3.293,11.022 3.241,11.123C3.19,11.224 3.164,11.375 3.164,11.577C3.164,11.778 3.19,11.93 3.241,12.03C3.293,12.131 3.37,12.181 3.472,12.181C3.575,12.181 3.652,12.131 3.704,12.03C3.755,11.93 3.781,11.778 3.781,11.577C3.781,11.375 3.755,11.224 3.704,11.123C3.652,11.022 3.575,10.972 3.472,10.972ZM3.472,10.815C3.637,10.815 3.762,10.88 3.849,11.01C3.936,11.14 3.979,11.329 3.979,11.577C3.979,11.824 3.936,12.013 3.849,12.143C3.762,12.273 3.636,12.339 3.472,12.339C3.307,12.339 3.181,12.273 3.095,12.143C3.008,12.013 2.964,11.824 2.964,11.577C2.964,11.329 3.008,11.14 3.095,11.01C3.181,10.88 3.307,10.815 3.472,10.815ZM4.364,12.143L4.689,12.143L4.689,11.022L4.336,11.093L4.336,10.912L4.687,10.841L4.886,10.841L4.886,12.143L5.21,12.143L5.21,12.31L4.364,12.31L4.364,12.143ZM5.647,12.143L5.972,12.143L5.972,11.022L5.618,11.093L5.618,10.912L5.97,10.841L6.168,10.841L6.168,12.143L6.493,12.143L6.493,12.31L5.647,12.31L5.647,12.143ZM7.32,10.972C7.218,10.972 7.141,11.022 7.09,11.123C7.038,11.224 7.012,11.375 7.012,11.577C7.012,11.778 7.038,11.93 7.09,12.03C7.141,12.131 7.218,12.181 7.32,12.181C7.423,12.181 7.501,12.131 7.552,12.03C7.604,11.93 7.629,11.778 7.629,11.577C7.629,11.375 7.604,11.224 7.552,11.123C7.501,11.022 7.423,10.972 7.32,10.972ZM7.32,10.815C7.485,10.815 7.611,10.88 7.698,11.01C7.785,11.14 7.828,11.329 7.828,11.577C7.828,11.824 7.785,12.013 7.698,12.143C7.611,12.273 7.485,12.339 7.32,12.339C7.156,12.339 7.03,12.273 6.943,12.143C6.856,12.013 6.813,11.824 6.813,11.577C6.813,11.329 6.856,11.14 6.943,11.01C7.03,10.88 7.156,10.815 7.32,10.815ZM8.213,12.143L8.537,12.143L8.537,11.022L8.184,11.093L8.184,10.912L8.535,10.841L8.734,10.841L8.734,12.143L9.059,12.143L9.059,12.31L8.213,12.31L8.213,12.143ZM3.081,14.661L3.406,14.661L3.406,13.541L3.053,13.612L3.053,13.431L3.404,13.36L3.603,13.36L3.603,14.661L3.927,14.661L3.927,14.828L3.081,14.828L3.081,14.661ZM4.755,13.491C4.652,13.491 4.576,13.541 4.524,13.642C4.473,13.742 4.447,13.894 4.447,14.096C4.447,14.297 4.472,14.448 4.524,14.549C4.576,14.649 4.652,14.7 4.755,14.7C4.858,14.7 4.935,14.649 4.986,14.549C5.038,14.448 5.064,14.297 5.064,14.096C5.064,13.894 5.038,13.742 4.986,13.642C4.935,13.541 4.858,13.491 4.755,13.491ZM4.755,13.333C4.919,13.333 5.045,13.398 5.132,13.528C5.219,13.659 5.262,13.848 5.262,14.096C5.262,14.343 5.219,14.532 5.132,14.662C5.045,14.792 4.919,14.857 4.755,14.857C4.59,14.857 4.464,14.792 4.377,14.662C4.291,14.532 4.247,14.343 4.247,14.096C4.247,13.848 4.291,13.659 4.377,13.528C4.464,13.398 4.59,13.333 4.755,13.333ZM5.647,14.661L5.972,14.661L5.972,13.541L5.618,13.612L5.618,13.431L5.97,13.36L6.168,13.36L6.168,14.661L6.493,14.661L6.493,14.828L5.647,14.828L5.647,14.661ZM7.32,13.491C7.218,13.491 7.141,13.541 7.09,13.642C7.038,13.742 7.012,13.894 7.012,14.096C7.012,14.297 7.038,14.448 7.09,14.549C7.141,14.649 7.218,14.7 7.32,14.7C7.423,14.7 7.501,14.649 7.552,14.549C7.603,14.448 7.629,14.297 7.629,14.096C7.629,13.894 7.604,13.742 7.552,13.642C7.501,13.541 7.423,13.491 7.32,13.491ZM7.32,13.333C7.485,13.333 7.611,13.398 7.698,13.528C7.784,13.659 7.828,13.848 7.828,14.096C7.828,14.343 7.784,14.532 7.698,14.662C7.611,14.792 7.485,14.857 7.32,14.857C7.156,14.857 7.03,14.792 6.943,14.662C6.856,14.532 6.813,14.343 6.813,14.096C6.813,13.848 6.856,13.659 6.943,13.528C7.03,13.398 7.156,13.333 7.32,13.333ZM8.213,14.661L8.537,14.661L8.537,13.541L8.184,13.612L8.184,13.431L8.535,13.36L8.734,13.36L8.734,14.661L9.059,14.661L9.059,14.828L8.213,14.828L8.213,14.661Z" style="fill-rule:nonzero;"/>
        </g>
    </g>
</svg>
